<svg xmlns="http://www.w3.org/2000/svg" width="325.74" height="285.34" viewBox="0 0 325.74 285.34">
  <title>exchange-icon</title>
  <g id="85dcbe94-46be-4dfa-a1f9-da7cf317839b" data-name="Ebene 2">
    <g id="67432d88-608d-4e06-a9f2-8c61544c384a" data-name="Ebene 1">
      <g id="08612f52-3bbd-438b-867f-6edeb41032bc" data-name="83a5cd0e-d839-4a9a-8923-77e2fee1869f">
        <g id="de07edbc-a1b4-4be3-8d77-899f2f434c1d" data-name="a5e59e9f-c462-4999-b9f8-7e40e4152850">
          <path d="M143.81,193.62l-23.86,78.62c-2.17,7.38-9.81,13.1-17.27,13.1H22.58c-8.85,0-18.31-7-21.52-16a16.07,16.07,0,0,1-.17-11c.17-1.74.52-3.47.61-5.55.09-1.39-.69-2.52-.52-3.56.35-2.08,2.17-3.56,3.56-5.9A62,62,0,0,0,11,227.37c.43-1.65-.43-3.56,0-5,.43-1.65,2.08-2.86,3-4.43,2.34-4,5.38-11.71,5.81-15.79.17-1.82-.69-3.82-.17-5.21.61-2,2.52-2.86,3.82-4.6,2.08-2.86,5.55-11.11,6.07-15.71.17-1.48-.69-3-.43-4.51s2.43-3.38,3.82-5.38c3.64-5.38,4.34-17.27,15.36-14.14l-.09.26a19.75,19.75,0,0,1,4.43-.78h66a12,12,0,0,1,9.89,4.86,12.77,12.77,0,0,1,1.56,11.28l-23.78,78.62c-4,13.33-6.29,16.28-17.29,16.28H13.56a4,4,0,0,0-3.3,1.3c-.69,1-.78,1.82-.09,3.73,1.74,5,7.72,6.07,12.5,6.07h80.09c3.21,0,6.94-1.82,7.9-5l26-85.65a13.85,13.85,0,0,0,.43-4.95,11.56,11.56,0,0,1,5.12,3.73A12.91,12.91,0,0,1,143.81,193.62Zm-99.19,14H97.39a4.18,4.18,0,0,0,3.64-2.78l1.82-5.55a1.94,1.94,0,0,0-1.91-2.78H48.18a4.18,4.18,0,0,0-3.64,2.78l-1.82,5.55a1.94,1.94,0,0,0,1.91,2.75Zm7.2-22.21h52.76a4.18,4.18,0,0,0,3.64-2.78l1.82-5.55a1.94,1.94,0,0,0-1.91-2.78H55.39a4.18,4.18,0,0,0-3.65,2.7l-1.82,5.55a1.94,1.94,0,0,0,1.91,2.82Z" style="fill: #333"/>
          <path d="M171.91,6.42H75.68A14.64,14.64,0,0,0,61.08,21V92L52,82.85a14.64,14.64,0,0,0-20.64,0h0a14.64,14.64,0,0,0,0,20.64l34,34a14.64,14.64,0,0,0,20.64,0l34-34a14.64,14.64,0,0,0,0-20.64h0a14.64,14.64,0,0,0-20.64,0L90.27,92V35.61H171.9a14.6,14.6,0,1,0,0-29.19Z" style="fill: #5881af"/>
          <path d="M325.12,41.57l-23.86,78.62c-2.17,7.38-9.81,13.1-17.27,13.1h-80.1c-8.85,0-18.31-7-21.52-16.05a16.07,16.07,0,0,1-.17-11c.17-1.74.52-3.47.61-5.55.09-1.39-.69-2.52-.52-3.56.35-2.08,2.17-3.56,3.56-5.9a62,62,0,0,0,6.51-15.88c.43-1.65-.43-3.56,0-5,.43-1.65,2.08-2.86,3-4.43,2.34-4,5.38-11.71,5.81-15.79.17-1.82-.69-3.82-.17-5.21.61-2,2.52-2.86,3.82-4.6,2.08-2.86,5.55-11.11,6.07-15.71.17-1.48-.69-3-.43-4.51s2.43-3.38,3.82-5.38c3.58-5.44,4.28-17.32,15.3-14.2l-.09.26A19.75,19.75,0,0,1,233.92,0h66a12,12,0,0,1,9.89,4.86,12.77,12.77,0,0,1,1.56,11.28L287.63,94.76c-4.08,13.36-6.33,16.31-17.36,16.31h-75.4a4,4,0,0,0-3.3,1.3c-.69,1-.78,1.82-.09,3.73,1.74,5,7.72,6.07,12.5,6.07h80.09c3.21,0,6.94-1.82,7.9-4.95l26-85.65a13.85,13.85,0,0,0,.43-5,11.56,11.56,0,0,1,5.12,3.73A12.91,12.91,0,0,1,325.12,41.57Zm-99.19,14h52.76a4.18,4.18,0,0,0,3.64-2.78l1.82-5.55a1.94,1.94,0,0,0-1.91-2.78H229.49a4.18,4.18,0,0,0-3.64,2.78L224,52.76a1.94,1.94,0,0,0,1.93,2.78Zm7.2-22.21h52.76a4.18,4.18,0,0,0,3.64-2.78L291.36,25a1.94,1.94,0,0,0-1.91-2.78H236.69A4.18,4.18,0,0,0,233,25l-1.82,5.55a1.94,1.94,0,0,0,2,2.77Z" style="fill: #333"/>
          <path d="M162.19,280.19h96.23A14.64,14.64,0,0,0,273,265.6v-71l9.13,9.13a14.64,14.64,0,0,0,20.64,0h0a14.64,14.64,0,0,0,0-20.64l-34-34a14.64,14.64,0,0,0-20.64,0l-34,34a14.64,14.64,0,0,0,0,20.64h0a14.64,14.64,0,0,0,20.64,0l9.13-9.13V251H162.19a14.6,14.6,0,1,0,0,29.19Z" style="fill: #5881af"/>
        </g>
      </g>
    </g>
  </g>
</svg>
